<?xml version="1.0" standalone="no"?>
<svg xmlns:xlink="http://www.w3.org/1999/xlink" id="wave" style="transform:rotate(0deg); transition: 0.3s" viewBox="0 0 1440 340" version="1.1" xmlns="http://www.w3.org/2000/svg"><defs><linearGradient id="sw-gradient-0" x1="0" x2="0" y1="1" y2="0"><stop stop-color="rgba(243, 106, 62, 1)" offset="0%"/><stop stop-color="rgba(255, 179, 11, 1)" offset="100%"/></linearGradient></defs><path style="transform:translate(0, 0px); opacity:1" fill="url(#sw-gradient-0)" d="M0,204L14.1,175.7C28.2,147,56,91,85,79.3C112.9,68,141,102,169,113.3C197.6,125,226,113,254,90.7C282.4,68,311,34,339,45.3C367.1,57,395,113,424,141.7C451.8,170,480,170,508,192.7C536.5,215,565,261,593,238C621.2,215,649,125,678,96.3C705.9,68,734,102,762,136C790.6,170,819,204,847,198.3C875.3,193,904,147,932,147.3C960,147,988,193,1016,221C1044.7,249,1073,261,1101,266.3C1129.4,272,1158,272,1186,266.3C1214.1,261,1242,249,1271,204C1298.8,159,1327,79,1355,51C1383.5,23,1412,45,1440,56.7C1468.2,68,1496,68,1525,56.7C1552.9,45,1581,23,1609,45.3C1637.6,68,1666,136,1694,181.3C1722.4,227,1751,249,1779,238C1807.1,227,1835,181,1864,147.3C1891.8,113,1920,91,1948,107.7C1976.5,125,2005,181,2019,209.7L2032.9,238L2032.9,340L2018.8,340C2004.7,340,1976,340,1948,340C1920,340,1892,340,1864,340C1835.3,340,1807,340,1779,340C1750.6,340,1722,340,1694,340C1665.9,340,1638,340,1609,340C1581.2,340,1553,340,1525,340C1496.5,340,1468,340,1440,340C1411.8,340,1384,340,1355,340C1327.1,340,1299,340,1271,340C1242.4,340,1214,340,1186,340C1157.6,340,1129,340,1101,340C1072.9,340,1045,340,1016,340C988.2,340,960,340,932,340C903.5,340,875,340,847,340C818.8,340,791,340,762,340C734.1,340,706,340,678,340C649.4,340,621,340,593,340C564.7,340,536,340,508,340C480,340,452,340,424,340C395.3,340,367,340,339,340C310.6,340,282,340,254,340C225.9,340,198,340,169,340C141.2,340,113,340,85,340C56.5,340,28,340,14,340L0,340Z"/></svg>